<?xml version="1.0" encoding="UTF-8"?> <svg xmlns="http://www.w3.org/2000/svg" width="354" height="80" viewBox="0 0 354 80" fill="none"><g clip-path="url(#clip0_132_4030)"><path d="M131.422 2.98462C140.377 2.98462 145.539 6.84312 145.539 14.2462C145.539 18.1047 143.173 21.5238 139.817 22.8953C144.047 24.204 147.528 28.5551 147.528 33.7174C147.528 41.5552 142.241 46.0946 132.353 46.0946C127.438 46.0946 122.775 45.969 117.802 45.8483L117.367 45.4765V3.60758L117.802 3.23574C122.586 3.11018 127.192 2.98462 131.422 2.98462ZM125.638 20.4034H131.05C136.085 20.4034 137.268 17.419 137.268 14.6809C137.268 12.0055 136.085 9.08386 131.113 9.08386C129.746 9.08386 127.38 9.08386 125.638 9.02108V20.4034ZM125.638 26.5654V40.1257C127.878 40.063 130.118 40.063 131.982 40.063C137.828 40.063 139.074 36.2045 139.074 33.3456C139.074 30.4191 137.519 26.5654 131.735 26.5654H125.638Z" fill="#001689"></path><path d="M160.153 32.9686C160.399 37.199 161.77 40.309 166.497 40.309C169.48 40.309 172.281 39.3769 174.893 38.1938C176.138 39.4397 176.945 41.4921 177.196 43.1099C174.086 45.3506 169.606 46.6545 165.256 46.6545C154.808 46.6545 151.887 38.8168 151.887 30.4816C151.887 21.1517 156.054 14.0576 165.319 14.0576C173.468 14.0576 178.007 19.7802 178.007 27.2461C178.007 29.6703 177.823 31.0418 177.321 32.9686H160.153ZM160.09 27.2461H170.412V26.4976C170.412 22.8902 168.983 19.9057 165.314 19.9057C161.954 19.9057 160.336 22.5183 160.09 27.2461Z" fill="#001689"></path><path d="M185.089 14.4343C188.57 14.869 190.811 16.9213 191.994 20.0313C193.36 16.8586 195.788 14.4923 199.892 14.4923C201.447 14.4923 202.441 14.6178 203.624 14.9269C203.624 16.9165 203.001 20.2776 201.635 22.5184C200.703 22.2093 199.709 22.1465 198.772 22.0837C195.977 22.0837 194.234 23.7015 192.925 25.9422V45.7853C191.805 45.9736 190.251 46.0944 188.822 46.0944C187.455 46.0944 185.959 45.9688 184.78 45.7853V25.0682C184.78 21.5863 183.472 19.5339 182.478 18.6598C182.787 17.2304 183.969 15.2408 185.089 14.4343Z" fill="#001689"></path><path d="M233.161 38.5708C233.161 40.8743 233.475 42.9895 234.47 44.4817C233.287 45.4765 231.36 46.225 229.371 46.225C226.137 46.225 225.016 44.4817 225.016 41.1882V26.6862C225.016 23.2044 224.331 21.6494 221.782 21.6494C219.976 21.6494 217.552 22.6442 215.621 24.6338V45.7856C214.501 45.9739 213.009 46.0946 211.58 46.0946C210.214 46.0946 208.654 45.9691 207.539 45.7856V14.9948L207.911 14.5602H211.02C213.506 14.5602 214.878 15.9268 215.375 18.2931C217.987 16.0524 221.096 14.3718 224.703 14.3718C230.424 14.3718 233.161 18.8533 233.161 25.0105V38.5708Z" fill="#001689"></path><path d="M262.893 43.1099C260.401 45.5341 257.172 46.6545 253.377 46.6545C249.645 46.6545 246.41 45.5341 243.923 43.1099C240.626 39.8116 239.506 35.644 239.506 30.3561C239.506 25.0681 240.626 20.8378 243.923 17.5394C246.41 15.178 249.645 14.0576 253.377 14.0576C257.172 14.0576 260.401 15.178 262.893 17.5394C266.19 20.8378 267.306 25.0681 267.306 30.3561C267.306 35.644 266.185 39.8116 262.893 43.1099ZM253.435 40.4973C257.978 40.4973 258.968 35.7696 258.968 30.3561C258.968 24.8798 257.973 20.152 253.435 20.152C248.834 20.152 247.839 24.8798 247.839 30.3561C247.839 35.7696 248.834 40.4973 253.435 40.4973Z" fill="#001689"></path><path d="M273.341 22.0837C273.341 19.7802 273.027 17.7278 272.032 16.1728C273.215 15.178 275.141 14.4294 277.131 14.4294C280.365 14.4294 281.485 16.2356 281.485 19.529V34.0214C281.485 37.5032 282.171 39.0003 284.72 39.0003C286.463 39.0003 288.95 38.0682 290.876 36.1366V14.9317C291.996 14.6806 293.488 14.6226 294.917 14.6226C296.346 14.6226 297.843 14.6854 299.021 14.9317V37.0155C299.021 39.1934 299.581 41.183 300.764 42.1778C300.392 43.6073 299.209 45.4762 298.026 46.2826C294.917 45.9736 292.802 44.293 291.745 41.864C289.07 44.351 285.71 46.3406 281.857 46.3406C276.073 46.3406 273.336 41.8012 273.336 35.7019V22.0837H273.341Z" fill="#001689"></path><path d="M319.733 39.8117C320.168 40.932 320.419 42.3615 320.419 43.7329C320.419 44.3559 320.356 45.0416 320.23 45.5391C318.55 45.7853 316.252 46.0992 314.2 46.0992C309.348 46.0992 307.233 43.675 307.233 38.5078V0.434625L307.668 0H310.777C314.075 0 315.195 1.42943 315.195 5.04165V36.9528C315.195 38.8217 315.938 39.8165 317.807 39.8165H319.733V39.8117Z" fill="#001689"></path><path d="M337.708 39.8117C338.142 40.932 338.393 42.3615 338.393 43.7329C338.393 44.3559 338.331 45.0416 338.205 45.5391C336.525 45.7853 334.227 46.0992 332.175 46.0992C327.323 46.0992 325.208 43.675 325.208 38.5078V0.434625L325.643 0H328.752C332.049 0 333.169 1.42943 333.169 5.04165V36.9528C333.169 38.8217 333.913 39.8165 335.781 39.8165H337.708V39.8117Z" fill="#001689"></path><path d="M353.5 45.7852C352.38 45.9735 350.888 46.0943 349.459 46.0943C348.03 46.0943 346.538 45.9687 345.355 45.7852V24.136C345.355 22.0209 344.67 20.7122 342.555 20.7122H341.749C341.502 19.7801 341.377 18.9109 341.377 17.9113C341.377 16.9792 341.502 15.9216 341.749 14.9848C343.492 14.7964 345.292 14.6757 346.475 14.6757H347.533C351.202 14.6757 353.505 17.1627 353.505 21.2096V45.7852H353.5ZM344.11 2.92634C345.041 2.42894 346.722 2.11987 348.151 2.11987C349.58 2.11987 351.385 2.42894 352.192 2.92634C352.626 3.92115 352.815 5.16708 352.815 6.16189C352.815 7.21947 352.626 8.40262 352.192 9.39743C351.385 9.89483 349.58 10.2667 348.151 10.2667C346.722 10.2667 344.916 9.89483 344.11 9.39743C343.675 8.40262 343.487 7.21947 343.487 6.16189C343.487 5.09947 343.675 3.92115 344.11 2.92634Z" fill="#001689"></path><path d="M75.5466 5.07036C65.9292 7.83264 57.0215 14.8591 49.9823 21.8517C43.7638 15.8877 36.6183 10.3873 28.8163 6.83301C23.0806 4.22043 16.7704 3.10489 10.8464 5.86717C4.40586 8.86126 0.66898 15.2502 0.5 22.2332C0.828305 35.6631 15.0806 47.5767 28.2611 43.7858C37.8833 41.0187 46.791 33.9874 53.8447 26.9996C60.0776 32.9636 67.2231 38.4641 75.0348 42.0232C80.7657 44.6357 87.0614 45.7464 92.9805 42.9938C99.4163 39.9949 103.153 33.6107 103.327 26.6229C102.999 13.1785 88.7367 1.28912 75.5466 5.07036ZM16.7704 39.8452C13.6274 39.5313 9.95324 37.7783 7.78064 35.3975C5.54527 32.9443 4.90797 29.8392 4.83073 26.6229C4.99005 20.0698 8.53864 14.0285 14.395 10.9619C19.8507 8.09825 25.8133 8.66809 31.3462 10.933C36.6859 13.1158 41.5622 16.4431 46.0523 20.036C47.1096 20.8811 48.1428 21.7551 49.1663 22.6485C44.0149 27.6805 38.1102 32.2393 31.8193 35.6969C27.281 38.1888 22.0571 40.3716 16.7704 39.8452ZM89.4368 37.899C83.986 40.7579 78.0378 40.1929 72.5098 37.928C67.17 35.7404 62.2889 32.4131 57.794 28.825C56.7318 27.9751 55.6938 27.101 54.6654 26.2076C59.8025 21.1756 65.6974 16.6169 71.9835 13.164C76.5315 10.6674 81.7651 8.48458 87.0614 9.01096C90.2044 9.32486 93.8785 11.0778 96.0512 13.4586C98.2865 15.9118 98.9238 19.017 99.0011 22.2332C98.8369 28.7912 95.2932 34.8277 89.4368 37.899Z" fill="#00A98F"></path><path d="M127.042 73.8961C126.922 74.4708 126.492 74.7364 125.864 74.7364H118.299C117.676 74.7364 117.266 74.2776 117.266 73.5339V58.4669L117.41 58.322H126.685C126.733 58.6118 126.733 58.8484 126.733 59.0657C126.733 59.2589 126.709 59.6162 126.613 59.906H120.486C120.1 59.906 119.549 59.9301 119.018 59.906C119.018 60.529 119.042 60.7704 119.042 61.3934V65.6479C119.569 65.6479 120.1 65.6237 120.486 65.6237H125.459C125.507 65.9135 125.531 66.2225 125.531 66.4157C125.531 66.633 125.507 66.9421 125.459 67.2077H120.486C120.1 67.2077 119.573 67.2077 119.042 67.1835V72.2542C119.042 72.5922 119.018 72.853 119.018 73.1669C119.429 73.1427 119.907 73.1186 120.505 73.1186H127.086C127.091 73.2973 127.091 73.6353 127.042 73.8961Z" fill="#001689"></path><path d="M133.695 62.7503C134.777 62.7503 135.786 63.1607 136.698 63.7354V57.2257L136.843 57.0808H137.49C138.282 57.0808 138.427 57.4913 138.427 58.2833V71.4283C138.427 72.4376 138.523 73.4227 139.098 73.9974C138.977 74.3113 138.663 74.7411 138.306 74.9101C137.49 74.6203 137.055 74.0457 136.838 73.302C136.022 74.263 134.772 75.0308 133.236 75.0308C130.595 75.0308 129.2 72.5776 129.2 68.9992C129.205 64.5998 131.58 62.7503 133.695 62.7503ZM136.698 71.6408V65.3677C135.882 64.8171 134.921 64.2859 133.864 64.2859C132.42 64.2859 131.006 65.6574 131.006 68.9944C131.006 72.1913 132.232 73.4855 133.574 73.4855C134.656 73.4903 135.882 72.8191 136.698 71.6408Z" fill="#001689"></path><path d="M142.439 65.2228C142.439 64.4549 142.367 63.7306 142.149 63.18C142.391 62.9627 142.845 62.7937 143.279 62.7937C143.95 62.7937 144.192 63.18 144.192 63.972V70.6266C144.192 72.5486 144.578 73.3406 145.968 73.3406C147.171 73.3406 148.706 72.5728 149.642 71.491V62.9627C149.884 62.8903 150.193 62.8661 150.507 62.8661C150.869 62.8661 151.178 62.8903 151.419 62.9627V71.4186C151.419 72.4279 151.492 73.413 152.09 73.9877C151.97 74.3258 151.632 74.7314 151.274 74.9004C150.386 74.5865 149.951 73.9153 149.763 73.1233C148.682 74.205 147.074 74.9487 145.51 74.9487C143.226 74.9487 142.434 73.244 142.434 71.2013V65.2228H142.439Z" fill="#001689"></path><path d="M159.448 64.0928C157.696 64.0928 156.518 65.7492 156.518 68.9461C156.518 71.9981 157.671 73.4855 159.593 73.4855C160.771 73.4855 161.78 72.8143 162.668 72.1623C163.031 72.3796 163.412 72.8577 163.509 73.2924C162.403 74.3258 161.032 75.0212 159.352 75.0212C155.914 75.0212 154.668 71.9692 154.668 68.9413C154.668 64.5902 157.025 62.644 159.496 62.644C162.548 62.644 163.653 64.8075 163.653 66.0824C163.653 66.6812 163.509 67.1883 162.717 67.1883C162.451 67.1883 162.234 67.1641 161.949 67.1158C162.041 65.7299 161.466 64.0928 159.448 64.0928Z" fill="#001689"></path><path d="M174.483 74.9054C173.618 74.5915 173.184 74.0168 172.996 73.2249C172.107 74.0893 170.808 75.0261 169.225 75.0261C166.893 75.0261 165.763 73.249 165.763 71.5443C165.763 68.8786 167.588 67.6761 170.258 67.6761C171.074 67.6761 172.035 67.7244 172.899 67.8934V66.691C172.899 64.8897 172.059 64.2378 170.736 64.2378C169.413 64.2378 168.071 64.6724 166.821 65.2229C166.483 64.9332 166.198 64.3102 166.198 63.8273C167.4 63.3009 169.225 62.6973 170.905 62.6973C173.401 62.6973 174.627 64.117 174.627 66.7103V71.6602C174.627 72.6695 174.7 73.4132 175.299 73.9927C175.183 74.3066 174.845 74.7412 174.483 74.9054ZM172.899 71.5926V69.1877C172.083 69.0669 171.146 69.0186 170.282 69.0186C168.626 69.0186 167.569 69.8831 167.569 71.4236C167.569 72.5777 168.24 73.5146 169.466 73.5146C170.567 73.5146 171.89 72.8868 172.899 71.5926Z" fill="#001689"></path><path d="M181.4 74.9778C178.446 74.6397 177.364 71.7809 177.364 68.9462C177.364 64.5951 179.72 62.6489 182.192 62.6489C185.244 62.6489 186.349 64.8124 186.349 66.0873C186.349 66.6861 186.204 67.1932 185.413 67.1932C185.147 67.1932 184.93 67.169 184.645 67.1207C184.741 65.7251 184.162 64.0928 182.149 64.0928C180.396 64.0928 179.218 65.7493 179.218 68.9462C179.218 71.9982 180.372 73.4856 182.294 73.4856C183.472 73.4856 184.481 72.8143 185.369 72.1624C185.731 72.3797 186.113 72.8578 186.209 73.2924C185.273 74.181 184.119 74.8039 182.772 74.973C182.651 75.1903 182.53 75.4752 182.458 75.6925C183.66 75.7891 184.572 76.5328 184.572 77.7835C184.572 79.0584 183.443 79.9953 181.956 79.9953C181.236 79.9953 180.536 79.8021 180.155 79.5365C180.179 79.126 180.372 78.7687 180.614 78.4789C180.903 78.6721 181.405 78.817 181.84 78.817C182.704 78.817 183.018 78.3148 183.018 77.7594C183.018 77.1847 182.68 76.726 181.864 76.726C181.671 76.726 181.454 76.7742 181.289 76.8467C181.12 76.7742 180.951 76.6052 180.903 76.4603C181.019 76.0112 181.212 75.4366 181.4 74.9778Z" fill="#001689"></path><path d="M197.184 74.9053C196.319 74.5914 195.885 74.0168 195.692 73.2248C194.803 74.0892 193.505 75.0261 191.921 75.0261C189.589 75.0261 188.459 73.2489 188.459 71.5442C188.459 68.8785 190.284 67.6761 192.95 67.6761C193.765 67.6761 194.726 67.7244 195.59 67.8934V66.6909C195.59 64.8896 194.75 64.2377 193.427 64.2377C192.105 64.2377 190.762 64.6723 189.512 65.2229C189.174 64.9331 188.889 64.3101 188.889 63.8272C190.091 63.3008 191.916 62.6972 193.596 62.6972C196.093 62.6972 197.319 64.117 197.319 66.7102V71.6601C197.319 72.6694 197.391 73.4131 197.99 73.9926C197.884 74.3065 197.546 74.7411 197.184 74.9053ZM191.974 60.2971C191.757 60.2005 191.448 60.0798 191.158 60.0798C190.796 60.0798 190.439 60.3695 190.173 60.7028L189.86 61.0891C189.473 61.0649 189.068 60.8476 188.947 60.5144L189.164 60.0315C189.599 59.0463 190.415 58.4717 191.327 58.4717C191.829 58.4717 192.288 58.6407 192.626 58.8097L194.094 59.5051C194.335 59.6259 194.668 59.7224 194.91 59.7224C195.272 59.7224 195.605 59.481 195.895 59.0995L196.208 58.7373C196.595 58.7614 196.976 59.0029 197.121 59.312L196.904 59.7949C196.421 60.8525 195.581 61.3547 194.741 61.3547C194.214 61.3547 193.78 61.1857 193.442 61.0166L191.974 60.2971ZM195.6 71.5925V69.1876C194.784 69.0669 193.848 69.0186 192.983 69.0186C191.327 69.0186 190.27 69.883 190.27 71.4235C190.27 72.5777 190.941 73.5145 192.167 73.5145C193.268 73.5145 194.591 72.8867 195.6 71.5925Z" fill="#001689"></path><path d="M208.356 73.7561C207.516 74.5963 206.41 75.031 205.039 75.031C203.692 75.031 202.586 74.5963 201.746 73.7561C200.496 72.4812 200.066 70.7765 200.066 68.8545C200.066 66.9324 200.5 65.2277 201.746 63.9528C202.586 63.0884 203.692 62.6538 205.039 62.6538C206.41 62.6538 207.516 63.0884 208.356 63.9528C209.606 65.2277 210.036 66.9324 210.036 68.8545C210.036 70.7765 209.606 72.4812 208.356 73.7561ZM205.063 73.6353C207.443 73.6353 208.211 71.2304 208.211 68.8545C208.211 66.4978 207.443 64.0494 205.063 64.0494C202.659 64.0494 201.915 66.5027 201.915 68.8545C201.915 71.2304 202.663 73.6353 205.063 73.6353Z" fill="#001689"></path></g><defs><clipPath id="clip0_132_4030"><rect width="353" height="80" fill="white" transform="translate(0.5)"></rect></clipPath></defs></svg> 